<svg xmlns="http://www.w3.org/2000/svg" xml:space="preserve" width="800" height="800" fill="#fff" stroke="#fff" viewBox="0 0 512 512"><path d="M480.001 0h-352c-17.674 0-32 14.326-32 32v32h288c35.346 0 64 28.654 64 64v192h32c17.674 0 32-14.326 32-32V32c0-17.674-14.326-32-32-32z"/><path d="M384.001 96h-352c-17.674 0-32 14.326-32 32v256.002c0 17.672 14.326 32 32 32h16v73.438c0 12.461 10.101 22.563 22.56 22.563h.097c5.982 0 11.722-2.379 15.952-6.609L176 416.003h208.002c17.674 0 32-14.328 32-32V128c-.001-17.674-14.327-32-32.001-32Z"/></svg>