<svg xmlns="http://www.w3.org/2000/svg" xml:space="preserve" width="200" height="200" fill="#fff" stroke="#fff" viewBox="0 0 512.004 512.004"><path d="M256.004 21.335c-141.163 0-256 95.701-256 213.333 0 41.643 14.165 79.381 43.285 115.157.789 16.811-.192 67.584-37.035 104.427-6.976 6.997-8.277 17.856-3.093 26.261 3.968 6.443 10.923 10.155 18.176 10.155 2.219 0 4.48-.341 6.677-1.067 6.4-2.112 13.824-4.331 21.952-6.763 34.304-10.24 84.331-25.173 123.669-53.099C199.747 440.79 218.158 448 256.003 448c141.163 0 256-95.701 256-213.333S397.167 21.335 256.004 21.335z"/></svg>