<svg xmlns="http://www.w3.org/2000/svg" width="250" height="250" viewBox="0 0 66.146 66.146"><path fill="#0085fe" fill-rule="evenodd" d="M66.146 33.073a33.073 33.073 0 0 1-33.073 33.073A33.073 33.073 0 0 1 0 33.073 33.073 33.073 0 0 1 33.073 0a33.073 33.073 0 0 1 33.073 33.073Z"/><path fill="#fff" d="M12.84 46.514c1.472-.024 2.951.048 4.418-.038.747-.395.85-1.356 1.256-2.04.387-.957.931-2.127 2.158-2.07 3.97.012 7.94-.027 11.91.019 1.431.2 1.672 1.772 2.249 2.833.247.661.64 1.473 1.495 1.296 1.343-.025 2.695.049 4.033-.038.393-.5-.285-1.124-.423-1.667l-12.83-27.97c-.631-.952-1.434.115-1.604.822l-13 28.345a.333.333 0 0 0 .339.508zm9.314-9.99c1.333-2.838 2.615-5.7 3.98-8.52.67-.814 1.033.63 1.3 1.119 1.155 2.55 2.365 5.077 3.484 7.642.244 1.065-1.087.843-1.75.859-2.181-.013-4.364.025-6.544-.02-.557-.034-.722-.653-.47-1.08zM45.437 17.43v28.533c.049.768.935.503 1.453.55 1.1-.023 2.21.05 3.306-.038.523-.32.254-1.019.321-1.534v-27.51c-.048-.767-.934-.503-1.452-.55-1.101.023-2.21-.05-3.306.038-.212.07-.332.3-.322.512z"/></svg>
