<svg xmlns="http://www.w3.org/2000/svg" xml:space="preserve" width="200" height="200" fill="#fff" stroke="#fff" viewBox="0 0 512 512"><path d="M256 21.335c-141.16 0-256 95.701-256 213.33 0 41.643 14.165 79.381 43.285 115.16.789 16.811-.192 67.584-37.035 104.43-6.976 6.997-8.277 17.856-3.093 26.261 3.968 6.443 10.923 10.155 18.176 10.155 2.219 0 4.48-.341 6.677-1.067 6.4-2.112 13.824-4.331 21.952-6.763 34.304-10.24 84.331-25.173 123.67-53.099 26.112 11.051 44.523 18.261 82.368 18.261 141.16 0 256-95.701 256-213.33S397.16 21.343 256 21.343z"/><path fill="#212121" stroke="none" d="M88.111 340.41c11.586-.1889 23.226.37779 34.772-.29909 5.8794-3.1089 6.69-10.673 9.8855-16.056 3.0459-7.5322 7.3276-16.741 16.985-16.292 31.246.0944 62.493-.2125 93.739.14955 11.263 1.5741 13.16 13.947 17.701 22.298 1.944 5.2025 5.0372 11.593 11.767 10.2 10.57-.19677 21.211.38566 31.742-.29909 3.0932-3.9353-2.2431-8.8466-3.3293-13.12l-100.98-220.14c-4.9664-7.4929-11.286.90511-12.624 6.4696l-102.32 223.09a2.6209 2.6209 0 0 0 2.6682 3.9983zm73.307-78.628c10.492-22.337 20.582-44.863 31.325-67.058 5.2733-6.4067 8.1304 4.9585 10.232 8.8072 9.0906 20.07 18.614 39.959 27.421 60.147 1.9204 8.3822-8.5554 6.635-13.774 6.7609-17.166-.10232-34.347.19677-51.505-.15742-4.3839-.2676-5.6826-5.1395-3.6992-8.5003zm183.25-150.28v224.57c.38566 6.0447 7.359 3.9589 11.436 4.3289 8.6577-.18103 17.394.39353 26.02-.29909 4.1164-2.5186 1.9991-8.0202 2.5265-12.074v-216.52c-.37785-6.0368-7.3512-3.9589-11.428-4.3288-8.6655.18102-17.394-.39353-26.02.29909-1.6686.55094-2.613 2.3612-2.5344 4.0298z"/></svg>