<svg xmlns="http://www.w3.org/2000/svg" xml:space="preserve" width="800" height="800" fill="#fff" stroke="#fff" viewBox="0 0 512 512"><path d="M480.001 0h-352c-17.674 0-32 14.326-32 32v32h288c35.346 0 64 28.654 64 64v192h32c17.674 0 32-14.326 32-32V32c0-17.674-14.326-32-32-32z"/><path d="M384.001 96h-352c-17.674 0-32 14.326-32 32v256.002c0 17.672 14.326 32 32 32h16v73.438c0 12.461 10.101 22.563 22.56 22.563h.097c5.982 0 11.722-2.379 15.952-6.609L176 416.003h208.002c17.674 0 32-14.328 32-32V128c-.001-17.674-14.327-32-32.001-32Z"/><path fill="#212121" stroke-width="5.26194" d="M109.86517 335.01353c7.74558-.12617 15.528.25257 23.24725-.19993 3.93067-2.07845 4.47266-7.13518 6.60901-10.73435 2.03638-5.03567 4.89886-11.19215 11.35527-10.89222 20.88991.0631 41.77983-.14204 62.66972.10007 7.52985 1.05239 8.79797 9.32416 11.83412 14.9071 1.29969 3.47812 3.36764 7.75083 7.8666 6.81945 7.06678-.13161 14.18095.25786 21.22143-.19991 2.06792-2.63096-1.49967-5.91441-2.22583-8.77166l-67.51071-147.17651c-3.32028-5.00936-7.54561.60514-8.44015 4.32532l-68.40524 149.14975a1.7522267 1.7522267 0 0 0 1.7838 2.67305zm49.00972-52.56681c7.01417-14.93338 13.75999-29.99307 20.94254-44.83174 3.52549-4.28322 5.43558 3.31502 6.84051 5.8881 6.07755 13.41796 12.4445 26.71488 18.33261 40.21179 1.28392 5.60394-5.71971 4.43581-9.2084 4.51999-11.47629-.0683-22.96311.13161-34.43413-.10529-2.93091-.17881-3.79913-3.43603-2.47313-5.68289zM281.38868 181.9752v150.13901c.25785 4.04115 4.91994 2.64674 7.64562 2.89405 5.78814-.12095 11.62889.2631 17.39597-.19992 2.752-1.68379 1.33655-5.36192 1.68909-8.07181V181.9805c-.25258-4.03589-4.91466-2.64674-7.64033-2.89405-5.7934.12095-11.62889-.26311-17.39599.19991-1.11555.36833-1.74696 1.57858-1.69436 2.69409z"/></svg>