<svg xmlns="http://www.w3.org/2000/svg" viewBox="0 0 512.8 512.8">
  <path d="M268.8 47.2H15.2C6.4 47.2 0 53.6 0 62.4v174.4c0 8 6.4 15.2 15.2 15.2h36v66.4l84-66.4h134.4c8 0 15.2-6.4 15.2-15.2V62.4c-1.6-8.8-8-15.2-16-15.2z"/>
  <g fill="#fff">
    <circle cx="211.2" cy="148.8" r="21.6"/>
    <circle cx="141.6" cy="148.8" r="21.6"/>
    <circle cx="72" cy="148.8" r="21.6"/>
  </g>
  <path d="M496.8 195.2H243.2c-8 0-15.2 6.4-15.2 15.2V384c0 8 6.4 15.2 15.2 15.2h134.4l84 66.4v-66.4h36c8 0 15.2-6.4 15.2-15.2V209.6c-.8-8-7.2-14.4-16-14.4z" fill="#25b6d2"/>
  <g fill="#fff">
    <circle cx="376.8" cy="296.8" r="21.6"/>
    <circle cx="300.8" cy="296.8" r="21.6"/>
    <circle cx="440" cy="296.8" r="21.6"/>
  </g>
</svg>
