<svg xmlns="http://www.w3.org/2000/svg" width="512" height="512">
  <linearGradient id="a" x1="15.63" x2="496.37" y1="256" y2="256" gradientUnits="userSpaceOnUse">
    <stop offset=".049" stop-color="#d2deff"/>
    <stop offset=".999" stop-color="#dcfdee"/>
  </linearGradient>
  <path fill="url(#a)" d="M20.722 179.563c26.255 85.007 107.775 89.005 182.131 93.553C447.72 288.094 139.851 491.302 349.55 511.42c77.136 7.4 157.788-56.956 145.59-140.291-11.107-75.879-121.152-121.073-121.207-191.979-.043-55.945 103.86-96.409 36.272-156.553C349.956-31.015-32.666 6.709 20.722 179.563z"/>
  <path fill="#2626bc" d="M371.524 88.35c0-14.464-11.726-26.19-26.19-26.19h-175.52c-14.46 0-26.19 11.72-26.19 26.19v208.56c-12.251 10.082-20.065 25.361-20.065 42.465V463.84c0 5.523 4.477 10 10 10h188.302c5.523 0 10-4.477 10-10v-10.951h30.724c9.643 0 17.459-7.817 17.459-17.459v-7.857c0-6.371-3.424-11.929-8.521-14.978V88.35z" opacity=".1"/>
  <path fill="#ff7eb8" d="M231.761 399.79h100.101v50.05H231.761z"/>
  <path fill="#fff" d="M371.524 64.35v329.91c0 14.47-11.72 26.19-26.19 26.19h-175.52c-14.46 0-26.19-11.72-26.19-26.19V64.35c0-14.47 11.73-26.19 26.19-26.19h175.52c14.47 0 26.19 11.72 26.19 26.19z"/>
  <path fill="#97ffd2" d="M143.624 233.84v160.42c0 14.47 11.73 26.19 26.19 26.19h175.52c14.47 0 26.19-11.72 26.19-26.19V233.84z"/>
  <path fill="#b7c5ff" d="M143.624 305.84v88.42c0 14.47 11.73 26.19 26.19 26.19h175.52c14.47 0 26.19-11.72 26.19-26.19v-88.42z"/>
  <path fill="#9fb0fe" d="M143.624 334.84v59.42c0 14.47 11.73 26.19 26.19 26.19h175.52c14.47 0 26.19-11.72 26.19-26.19v-59.42z"/>
  <path fill="#6583fe" d="M305.608 58.185l6.248-20.025H202.298l6.248 20.025a8.731 8.731 0 008.334 6.13h80.395a8.73 8.73 0 008.333-6.13z"/>
  <g fill="#ffa8cf">
    <path d="M123.56 449.84V315.375c0-30.359 24.611-54.97 54.97-54.97h57.596c14.946 0 27.062 12.116 27.062 27.062 0 14.946-12.116 27.062-27.062 27.062h-46.559s77.112 6.111 77.112 135.311M369.569 294.812H323.55c-12.606 0-22.825-10.219-22.825-22.825s10.219-22.825 22.825-22.825h46.019c9.643 0 17.459 7.817 17.459 17.459v10.732c.001 9.643-7.816 17.459-17.459 17.459zM369.569 340.463h-56.494c-12.606 0-22.825-10.219-22.825-22.825s10.219-22.825 22.825-22.825h56.494c9.643 0 17.459 7.817 17.459 17.459v10.732c.001 9.642-7.816 17.459-17.459 17.459zM369.569 386.113H323.55c-12.606 0-22.825-10.219-22.825-22.825s10.219-22.825 22.825-22.825h46.019c9.643 0 17.459 7.817 17.459 17.459v10.732c.001 9.642-7.816 17.459-17.459 17.459zM362.586 428.889h-41.361c-11.812 0-21.388-9.576-21.388-21.388 0-11.812 9.576-21.388 21.388-21.388h41.361c9.643 0 17.459 7.817 17.459 17.459v7.857c0 9.643-7.817 17.46-17.459 17.46z"/>
  </g>
  <g>
    <path fill="#b7c5ff" d="M187.92 65.563h-16a5 5 0 01-5-5v-4.98a5 5 0 015-5h16a5 5 0 015 5v4.98a5 5 0 01-5 5zM328.253 64.822a5 5 0 01-5-5v-3.5a5 5 0 0110 0v3.5a5 5 0 01-5 5zM343.503 64.822a5 5 0 01-5-5v-3.5a5 5 0 0110 0v3.5a5 5 0 01-5 5z"/>
  </g>
  <path fill="#6583fe" d="M92.741 257.84a5 5 0 01-5-5c0-3.309-2.691-6-6-6a5 5 0 110-10c3.309 0 6-2.691 6-6a5 5 0 1110 0c0 3.309 2.691 6 6 6a5 5 0 110 10c-3.309 0-6 2.691-6 6a5 5 0 01-5 5zM410.039 224.691a5 5 0 01-5-5c0-3.309-2.691-6-6-6-2.762 0-5-2.238-5-5s2.238-5 5-5c3.309 0 6-2.692 6-6.001 0-2.762 2.238-5 5-5s5 2.238 5 5a6.007 6.007 0 006 6.001c2.762 0 5 2.238 5 5s-2.238 5-5 5c-3.309 0-6 2.691-6 6a5 5 0 01-5 5z"/>
  <path fill="#01eca5" d="M414.628 162.749a4.98 4.98 0 01-3.535-1.465l-11-11a4.998 4.998 0 010-7.07l11-11a4.998 4.998 0 017.07 0l11 11a4.998 4.998 0 010 7.07l-11 11a4.98 4.98 0 01-3.535 1.465zm-3.929-16l3.929 3.929 3.929-3.929-3.929-3.929zM426.039 413.113a4.98 4.98 0 01-3.535-1.465l-11-11a4.998 4.998 0 010-7.07l11-11a4.998 4.998 0 017.07 0l11 11a4.998 4.998 0 010 7.07l-11 11a4.98 4.98 0 01-3.535 1.465zm-3.929-16l3.929 3.929 3.929-3.929-3.929-3.929z"/>
  <path fill="#ff7eb8" d="M85.961 315.174a4.984 4.984 0 01-3.536-1.465l-11-11a4.998 4.998 0 010-7.07l11-11a5 5 0 017.071 0l11 11a4.998 4.998 0 010 7.07l-11 11a4.98 4.98 0 01-3.535 1.465zm-3.929-16l3.929 3.929 3.929-3.929-3.929-3.929z"/>
  <g>
    <path fill="#01eca5" d="M197.31 202.69a5 5 0 01-5-5v-91.846a5 5 0 1110 0v91.846a5 5 0 01-5 5zM247.653 202.69a5 5 0 01-5-5v-91.846a5 5 0 1110 0v91.846a5 5 0 01-5 5zM279.997 202.69a5 5 0 01-5-5v-52.787c0-2.762 2.238-5 5-5s5 2.238 5 5v52.787a5 5 0 01-5 5z"/>
    <path fill="#01eca5" d="M247.653 156.768h-46.758a5 5 0 110-10h46.758a5 5 0 110 10zM280 126.52c-.33 0-.66-.04-.98-.1-.319-.07-.63-.16-.939-.29a5.081 5.081 0 01-1.62-1.08c-.23-.23-.44-.48-.62-.76a5.127 5.127 0 01-.75-1.799c-.06-.32-.09-.65-.09-.971a5.04 5.04 0 011.46-3.54c.229-.229.49-.439.76-.62.271-.18.561-.33.86-.46.31-.12.62-.22.939-.279a4.924 4.924 0 011.95 0c.32.06.64.159.94.279.3.13.59.28.859.46.271.181.53.391.761.62a5.05 5.05 0 011.47 3.54 4.954 4.954 0 01-.391 1.91c-.119.3-.279.59-.46.86-.18.279-.39.529-.619.76-.23.229-.49.44-.761.62a5.137 5.137 0 01-1.799.75 5.43 5.43 0 01-.97.1z"/>
    <g>
      <path fill="#01eca5" d="M313.279 179.306a5 5 0 01-5-5v-68.461c0-2.762 2.238-5 5-5s5 2.238 5 5v68.461a5 5 0 01-5 5z"/>
    </g>
    <path fill="#01eca5" d="M313.28 202.689a5.006 5.006 0 01-3.53-1.46 5.524 5.524 0 01-.63-.76 5.94 5.94 0 01-.46-.87 4.89 4.89 0 01-.28-.93c-.07-.32-.1-.65-.1-.98 0-.319.029-.649.1-.979.06-.311.16-.63.28-.931.13-.3.279-.59.46-.859.18-.28.39-.53.62-.76.229-.24.489-.44.76-.631a4.96 4.96 0 011.8-.739c1.62-.33 3.35.2 4.51 1.37.24.229.44.479.63.76.181.27.33.56.46.859.12.301.221.62.28.931.07.33.101.66.101.979 0 .33-.03.66-.101.98-.06.32-.16.63-.28.93-.13.3-.279.59-.46.87a6.167 6.167 0 01-.63.76 5.008 5.008 0 01-3.53 1.46z"/>
  </g>
  <g>
    <path fill="#b7c5ff" d="M292.188 239.414H230.4a5 5 0 110-10h61.788a5 5 0 110 10z"/>
  </g>
  <path fill="#2626bc" d="M392.029 277.353v-10.731c0-12.384-10.075-22.459-22.46-22.459H323.55c-15.343 0-27.825 12.482-27.825 27.825 0 7.569 3.041 14.438 7.962 19.459-10.737 3.86-18.437 14.142-18.437 26.191s7.7 22.331 18.437 26.191c-4.92 5.021-7.962 11.89-7.962 19.459 0 9.037 4.333 17.078 11.027 22.164-7.171 4.722-11.917 12.84-11.917 22.049 0 2.771.432 5.441 1.227 7.952h-26.465c-3.913-30.75-14.226-63.515-38.095-85.403-4.761-4.366-9.526-7.809-14.042-10.521h18.665c17.679 0 32.061-14.383 32.061-32.063 0-17.679-14.383-32.062-32.061-32.062H178.53a59.584 59.584 0 00-29.902 8.02V64.35c0-11.684 9.505-21.189 21.189-21.189h175.52c11.684 0 21.189 9.506 21.189 21.189v151.152c0 2.762 2.238 5 5 5s5-2.238 5-5V64.35c0-17.198-13.991-31.189-31.189-31.189h-175.52c-17.198 0-31.189 13.991-31.189 31.189v206.307c-12.304 10.99-20.068 26.962-20.068 44.719V449.84a5 5 0 1010 0V315.375c0-27.554 22.417-49.97 49.97-49.97h57.596c12.165 0 22.061 9.897 22.061 22.063s-9.897 22.062-22.061 22.062h-67.22a5 5 0 100 10h20.407c1.773.203 18.981 2.547 35.931 18.354 23.835 22.228 36.434 60.941 36.434 111.956 0 2.762 2.238 5 5 5s5-2.238 5-5c0-7.663-.294-15.892-1.026-24.387h31.254c4.822 5.184 11.695 8.436 19.316 8.436h5.637v15.951c0 2.762 2.238 5 5 5s5-2.238 5-5v-15.951h25.725c12.384 0 22.459-10.075 22.459-22.459v-7.857c0-5.652-2.104-10.82-5.563-14.771 7.426-3.668 12.547-11.319 12.547-20.146v-10.732c0-7.044-3.263-13.338-8.353-17.459 5.091-4.121 8.353-10.415 8.353-17.459v-10.732c0-7.044-3.263-13.338-8.353-17.459 5.093-4.124 8.355-10.418 8.355-17.462zM375.045 411.43c0 6.87-5.589 12.459-12.459 12.459h-41.361c-9.037 0-16.389-7.352-16.389-16.388s7.352-16.388 16.389-16.388h41.361c6.87 0 12.459 5.589 12.459 12.459zm6.984-99.159v10.732c0 6.87-5.59 12.459-12.46 12.459h-7.405c-2.762 0-5 2.238-5 5s2.238 5 5 5h7.405c6.87 0 12.46 5.589 12.46 12.459v10.732c0 6.87-5.59 12.459-12.46 12.459H323.551c-9.829 0-17.825-7.996-17.825-17.825s7.996-17.825 17.825-17.825h4.952c2.762 0 5-2.238 5-5s-2.238-5-5-5h-15.428c-9.829 0-17.825-7.996-17.825-17.825s7.996-17.825 17.825-17.825h56.495c6.869.001 12.459 5.589 12.459 12.459zm-58.478-22.458c-9.829 0-17.825-7.996-17.825-17.825s7.996-17.825 17.825-17.825h46.019c6.87 0 12.46 5.589 12.46 12.459v10.731c0 6.87-5.59 12.46-12.46 12.46z"/>
</svg>
