<svg xmlns="http://www.w3.org/2000/svg" viewBox="0 0 512 512"><path d="m487.6 90.6-66.2-66.2c-9.3-10.5-39.1-24.2-64.6 0L241.7 139.6c-17.8 17.8-17.8 46.8 0 64.6l19.2 19.2-37.6 37.6-19.2-19.2c-8.6-8.6-35.7-25.1-64.6 0L24.4 356.9c-17.8 17.8-17.8 46.8 0 64.6l66.2 66.2c22.7 22.7 52.4 12.1 64.6 0l115.2-115.2c17.8-17.8 17.8-46.8 0-64.6l-19.2-19.2 37.6-37.6 19.2 19.2c27.7 23.8 53.5 11 64.6 0l115.2-115.2c17.6-17.8 17.6-46.7-.2-64.5zm-245 245c2.5 2.5 2.5 6.6 0 9.1L127.4 459.9c-2.5 2.5-6.3 2.9-9.1 0l-66.2-66.2c-2.5-2.5-2.5-6.6 0-9.1l115.2-115.2c3.1-3.1 7.1-2 9.1 0l19.2 19.2-32.5 32.5c-7.7 7.7-7.7 20.1 0 27.7 3.8 3.8 17.3 10.4 27.7 0l32.5-32.5 19.3 19.3zm217.3-208.2L344.7 242.6c-2.5 2.5-6.3 2.9-9.1 0l-19.2-19.2 32.5-32.5c7.7-7.7 7.7-20.1 0-27.7-7.7-7.7-20.1-7.7-27.7 0l-32.5 32.5-19.2-19.2c-2.5-2.5-2.5-6.6 0-9.1L384.6 52.1c3.1-3.1 7.1-2.1 9.1 0l66.2 66.2c2.5 2.5 2.5 6.6 0 9.1z"/></svg>