<svg xmlns="http://www.w3.org/2000/svg" viewBox="0 0 512 512">
  <path d="M256 110.825c-43.241 0-78.42 35.179-78.42 78.42s35.179 78.42 78.42 78.42 78.42-35.179 78.42-78.42-35.179-78.42-78.42-78.42zm0 117.955c-21.802 0-39.534-17.739-39.534-39.534 0-21.802 17.732-39.534 39.534-39.534 21.796 0 39.534 17.732 39.534 39.534S277.796 228.78 256 228.78z"/>
  <path d="M256 229.428c-10.739 0-19.443 8.704-19.443 19.443v230.724c0 10.739 8.704 19.443 19.443 19.443s19.443-8.704 19.443-19.443V248.871c0-10.739-8.704-19.443-19.443-19.443zM256 12.962c-10.739 0-19.443 8.704-19.443 19.443v97.863c0 10.739 8.704 19.443 19.443 19.443s19.443-8.704 19.443-19.443V32.405c0-10.739-8.704-19.443-19.443-19.443zM433.58 244.334c-43.235 0-78.42 35.179-78.42 78.42s35.185 78.42 78.42 78.42c43.241 0 78.42-35.179 78.42-78.42s-35.185-78.42-78.42-78.42zm0 117.961c-21.809 0-39.541-17.739-39.541-39.541s17.739-39.534 39.541-39.534 39.534 17.739 39.534 39.534c0 21.809-17.739 39.541-39.534 39.541z"/>
  <path d="M433.58 362.289c-10.739 0-19.443 8.704-19.443 19.443v97.863c0 10.739 8.704 19.443 19.443 19.443 10.745 0 19.443-8.704 19.443-19.443v-97.863c0-10.739-8.704-19.443-19.443-19.443zM433.58 12.962c-10.739 0-19.443 8.704-19.443 19.443v230.724c0 10.739 8.704 19.443 19.443 19.443 10.745 0 19.443-8.704 19.443-19.443V32.405c0-10.739-8.704-19.443-19.443-19.443zM78.42 244.334c-43.241 0-78.42 35.179-78.42 78.42s35.179 78.42 78.42 78.42 78.42-35.179 78.42-78.42c.001-43.241-35.178-78.42-78.42-78.42zm0 117.961c-21.802 0-39.534-17.739-39.534-39.541S56.618 283.22 78.42 283.22s39.534 17.739 39.534 39.534c0 21.809-17.732 39.541-39.534 39.541z"/>
  <path d="M78.42 362.289c-10.739 0-19.443 8.704-19.443 19.443v97.863c0 10.739 8.704 19.443 19.443 19.443s19.443-8.704 19.443-19.443v-97.863c0-10.739-8.704-19.443-19.443-19.443zM78.42 12.962c-10.739 0-19.443 8.704-19.443 19.443v230.724c0 10.739 8.704 19.443 19.443 19.443s19.443-8.704 19.443-19.443V32.405c0-10.739-8.704-19.443-19.443-19.443z"/>
</svg>
