
<svg xmlns="http://www.w3.org/2000/svg" xml:space="preserve" style="enable-background:new 0 0 433.633 433.633" width="512" height="512" viewBox="0 0 433.633 433.633"><path d="M369.894 153.078c-35.004 0-63.739 28.735-63.739 63.739s28.735 63.739 63.739 63.739 63.739-28.735 63.739-63.739-28.735-63.739-63.739-63.739zM216.816 153.078c-35.004 0-63.739 28.735-63.739 63.739s28.735 63.739 63.739 63.739 63.739-28.735 63.739-63.739-28.735-63.739-63.739-63.739zM63.739 153.078C28.735 153.078 0 181.812 0 216.816s28.735 63.739 63.739 63.739 63.739-28.735 63.739-63.739-28.735-63.738-63.739-63.738z" style="fill:#4dcfe0"/></svg>
