<?xml version="1.0" encoding="iso-8859-1"?>
<!-- Generator: Adobe Illustrator 19.0.0, SVG Export Plug-In . SVG Version: 6.00 Build 0)  -->
<svg version="1.1" id="Capa_1" xmlns="http://www.w3.org/2000/svg" xmlns:xlink="http://www.w3.org/1999/xlink" x="0px" y="0px"
	 viewBox="0 0 433.633 433.633" style="enable-background:new 0 0 433.633 433.633;" xml:space="preserve">
<g>
	<path style="fill:#4DCFE0;" d="M369.894,153.078c-35.004,0-63.739,28.735-63.739,63.739s28.735,63.739,63.739,63.739
		s63.739-28.735,63.739-63.739S404.898,153.078,369.894,153.078z"/>
	<path style="fill:#4DCFE0;" d="M216.816,153.078c-35.004,0-63.739,28.735-63.739,63.739s28.735,63.739,63.739,63.739
		s63.739-28.735,63.739-63.739S251.82,153.078,216.816,153.078z"/>
	<path style="fill:#4DCFE0;" d="M63.739,153.078C28.735,153.078,0,181.812,0,216.816s28.735,63.739,63.739,63.739
		s63.739-28.735,63.739-63.739S98.743,153.078,63.739,153.078z"/>
</g>
<g>
</g>
<g>
</g>
<g>
</g>
<g>
</g>
<g>
</g>
<g>
</g>
<g>
</g>
<g>
</g>
<g>
</g>
<g>
</g>
<g>
</g>
<g>
</g>
<g>
</g>
<g>
</g>
<g>
</g>
</svg>
